<?xml version="1.0" standalone="no"?>
<!DOCTYPE svg PUBLIC "-//W3C//DTD SVG 20010904//EN"
 "http://www.w3.org/TR/2001/REC-SVG-20010904/DTD/svg10.dtd">
<svg version="1.0" xmlns="http://www.w3.org/2000/svg"
 width="192.000000pt" height="192.000000pt" viewBox="0 0 192.000000 192.000000"
 preserveAspectRatio="xMidYMid meet">
<metadata>
Created by potrace 1.10, written by Peter Selinger 2001-2011
</metadata>
<g transform="translate(0.000000,192.000000) scale(0.100000,-0.100000)"
fill="#000000" stroke="none">
<path d="M380 1881 c-135 -29 -230 -85 -267 -156 -9 -16 -24 -61 -34 -100 -17
-65 -17 -71 -2 -82 36 -28 79 -25 201 11 67 20 136 36 153 36 17 0 86 10 152
21 148 26 232 22 343 -16 155 -54 257 -103 425 -207 30 -18 69 -32 110 -37 35
-5 103 -19 151 -32 l86 -23 69 30 c87 38 113 78 113 173 0 167 -107 237 -485
320 -104 23 -199 44 -210 47 -11 3 -137 9 -280 14 -143 5 -300 11 -350 14 -67
5 -111 1 -175 -13z"/>
<path d="M600 910 c-76 -13 -155 -49 -199 -89 -60 -56 -58 -88 15 -172 159
-183 181 -399 40 -399 -114 0 -59 -90 84 -138 141 -47 190 -54 310 -49 97 3
129 9 205 37 100 36 165 89 165 134 0 14 -18 60 -41 103 -46 88 -47 104 -8
228 24 78 71 135 111 135 37 0 136 -53 196 -105 57 -48 68 -53 75 -32 16 47
-83 134 -203 180 -36 13 -116 50 -179 81 -155 78 -230 96 -395 95 -72 -1 -151
-5 -176 -9z"/>
<path d="M1541 384 c-51 -45 -111 -126 -111 -148 0 -23 58 -46 126 -49 51 -2
58 1 79 27 37 47 39 83 8 146 -16 30 -36 56 -45 58 -9 2 -35 -13 -57 -34z"/>
</g>
</svg>
